 http://s2.postimage.org/fas5ynnuh/ddd.jpg



Rurouni Kenshin 2012 BluRay 720p Sub-ENGLISH EP



info:


Imdb                             : http://www.imdb.com/title/tt1979319/
Genres                           : Action | Drama | History 
Director                         : Keishi Ohtomo
Writers                          : Nobuhiro Watsuki (manga), Kiyomi Fujii (screenplay)
Audio Language                   : Japanese
Country                          : Japan
Subtitles                        : ENGLISH 


General

Complete name                            : Rurouni Kenshin 2012 BluRay 720p Sub-ENGLISH EP
Format                                   : Matroska
Format version                           : Version 1
File size                                : 1.04 GiB
Duration                                 : 2h 14mn
Overall bit rate                         : 1 109 Kbps
Encoded date                             : UTC 2012-12-27 21:08:26
Writing application                      : VirtualDubMod

Video
ID                                       : 1
Format                                   : AVC
Format/Info                              : Advanced Video Codec
Format profile                           : High@L3.1
Format settings, CABAC                   : Yes
Format settings, ReFrames                : 3 frames
Codec ID                                 : H264
Duration                                 : 2h 14mn
Bit rate                                 : 895 Kbps
Width                                    : 1 280 pixels
Height                                   : 720 pixels
Display aspect ratio                     : 16:9
Frame rate                               : 25.000 fps
Color space                              : YUV
Chroma subsampling                       : 4:2:0
Bit depth                                : 8 bits
Scan type                                : Progressive
Bits/(Pixel*Frame)                       : 0.039
Stream size                              : 861 MiB (81%)
Writing library                          : x264 core 119 r2106kMod 07efeb4
Encoding settings                        : cabac=1 / ref=3 / deblock=1:0:0
Default                                  : Yes
Forced                                   : No

Audio
ID                                       : 2
Format                                   : MPEG Audio
Format version                           : Version 1
Format profile                           : Layer 3
Codec ID                                 : 55
Codec ID/Hint                            : MP3
Duration                                 : 2h 14mn
Bit rate mode                            : Constant
Bit rate                                 : 192 Kbps
Channel(s)                               : 2 channels
Sampling rate                            : 44.1 KHz
Compression mode                         : Lossy
Stream size                              : 185 MiB (17%)
Writing library                          : LAMELAME_MAJOR_VERSI
Default                                  : Yes
Forced                                   : No





cast:

Takeru Sato 	... 	Kenshin Himura

Emi Takei 	... 	Kaoru Kamiya

Yû Aoi 	... 	Megumi Takani

Teruyuki Kagawa 	... 	Kanryuu Takeda

Yôsuke Eguchi 	... 	Saito Hajime

Munetaka Aoki 	... 	Sanosuke Sagara

Kôji Kikkawa 	... 	Jine Udo

Taketo Tanaka 	... 	Yahiko Myojin  



plot:

Former legendary assassin Kenshin Himura (Takeru Sato) has now become a wandering samurai. 

Offerring aid & protecting those in need as atonement for his past deeds. During this time 

Kenshin Himura comes across and aides Kaoru Kamiya (Emi Takei). Her father opened the Kamiya Kasshin-ryu, 

a kendo school located in Tokyo and Kaoru is now an instructor there. Kaoru then invites Kenshin to 

stay at her dojo. Their relationship develops further, but Kenshin is still haunted by his violent past ...



Screenshot:

 
http://s2.postimage.org/nzapsce49/image.jpg 
http://s2.postimage.org/eg10yvqm1/image.jpg 
http://s2.postimage.org/ze76wyqgp/image.jpg 
http://s2.postimage.org/wldzcxq49/image.jpg 
http://s2.postimage.org/3ke8h9v21/image.jpg
